<?xml version="1.0" encoding="utf-8"?>
<!-- Generator: Adobe Illustrator 25.2.3, SVG Export Plug-In . SVG Version: 6.00 Build 0)  -->
<svg version="1.1" id="Layer_1" focusable="false" xmlns="http://www.w3.org/2000/svg" xmlns:xlink="http://www.w3.org/1999/xlink"
	 x="0px" y="0px" viewBox="0 0 448 512" style="enable-background:new 0 0 448 512;" xml:space="preserve">
<style type="text/css">
	.st0{fill:#FFFFFF;}
</style>
<path class="st0" d="M0,432V80c0-26.5,21.5-48,48-48h352c26.5,0,48,21.5,48,48v352c0,26.5-21.5,48-48,48H48C21.5,480,0,458.5,0,432z
	 M119.6,284.9l72.4-75.5V392c0,13.3,10.7,24,24,24h16c13.3,0,24-10.7,24-24V209.4l72.4,75.5c9.3,9.7,24.8,9.9,34.3,0.4l10.9-11
	c9.4-9.4,9.4-24.6,0-33.9L241,107.7c-9.4-9.4-24.6-9.4-33.9,0L74.3,240.4c-9.4,9.4-9.4,24.6,0,33.9l10.9,11
	C94.8,294.8,110.3,294.6,119.6,284.9z"/>
</svg>
